HIERARCHY
ROOT root
{
	OFFSET	0	13.1	24.9
	CHANNELS 6  Xposition Yposition Zposition Xrotation Yrotation Zrotation
	JOINT spine_1
	{
		OFFSET	0	9.99999	0
		CHANNELS 3  Xrotation Yrotation Zrotation
		JOINT spine_2
		{
			OFFSET	0	112	-10
			CHANNELS 3  Xrotation Yrotation Zrotation
			JOINT spine_3
			{
				OFFSET	0	206.5	19.3
				CHANNELS 3  Xrotation Yrotation Zrotation
				JOINT spine_4
				{
					OFFSET	0	110.4	14.6
					CHANNELS 3  Xrotation Yrotation Zrotation
					JOINT neck_1
					{
						OFFSET	0	71.8	-50.3
						CHANNELS 3  Xrotation Yrotation Zrotation
						JOINT neck_2
						{
							OFFSET	0	86.2	-25.8
							CHANNELS 3  Xrotation Yrotation Zrotation
							JOINT head_ee
							{
								OFFSET	0	179.8	-8.7
								CHANNELS 3  Xrotation Yrotation Zrotation
								End Site
								{
									OFFSET	1	0	0
								}
							}
						}
					}
					JOINT left_clavicle
					{
						OFFSET	-43.2	22.4	-70.8
						CHANNELS 3  Xrotation Yrotation Zrotation
						JOINT left_shoulder
						{
							OFFSET	-93.9	-5.79999	48.7
							CHANNELS 3  Xrotation Yrotation Zrotation
							JOINT left_elbow
							{
								OFFSET	-291.4	-30.8	15.2
								CHANNELS 3  Xrotation Yrotation Zrotation
								JOINT left_lowarm_twist
								{
									OFFSET	-110.7	-3.89999	13.6
									CHANNELS 3  Xrotation Yrotation Zrotation
									JOINT left_hand
									{
										OFFSET	-110.7	-3.89999	13.6
										CHANNELS 3  Xrotation Yrotation Zrotation
										JOINT left_ee
										{
											OFFSET	-80.8	-5.10001	12.1
											CHANNELS 3  Xrotation Yrotation Zrotation
											End Site
											{
												OFFSET	1	0	0
											}
										}
									}
								}
							}
						}
					}
					JOINT right_clavicle
					{
						OFFSET	43.2	22.4	-70.8
						CHANNELS 3  Xrotation Yrotation Zrotation
						JOINT right_shoulder
						{
							OFFSET	93.9	-5.79999	48.7
							CHANNELS 3  Xrotation Yrotation Zrotation
							JOINT right_elbow
							{
								OFFSET	291.4	-30.8	15.2
								CHANNELS 3  Xrotation Yrotation Zrotation
								JOINT right_lowarm_twist
								{
									OFFSET	110.7	-3.89999	13.6
									CHANNELS 3  Xrotation Yrotation Zrotation
									JOINT right_hand
									{
										OFFSET	110.7	-3.89999	13.6
										CHANNELS 3  Xrotation Yrotation Zrotation
										JOINT right_ee
										{
											OFFSET	80.8	-5.10001	12.1
											CHANNELS 3  Xrotation Yrotation Zrotation
											End Site
											{
												OFFSET	1	0	0
											}
										}
									}
								}
							}
						}
					}
				}
			}
		}
	}
	JOINT left_hip
	{
		OFFSET	-82.8	-127.5	0.300001
		CHANNELS 3  Xrotation Yrotation Zrotation
		JOINT left_knee
		{
			OFFSET	-28.2	-396.7	2.2
			CHANNELS 3  Xrotation Yrotation Zrotation
			JOINT left_ankle
			{
				OFFSET	-11.7	-411.3	35.4
				CHANNELS 3  Xrotation Yrotation Zrotation
				JOINT left_toes
				{
					OFFSET	0	-60	-88.6
					CHANNELS 3  Xrotation Yrotation Zrotation
					JOINT left_foot_ee
					{
						OFFSET	-22.5	-16.5	-42.2
						CHANNELS 3  Xrotation Yrotation Zrotation
						End Site
						{
							OFFSET	1	0	0
						}
					}
				}
			}
		}
	}
	JOINT right_hip
	{
		OFFSET	82.8	-127.5	0.300001
		CHANNELS 3  Xrotation Yrotation Zrotation
		JOINT right_knee
		{
			OFFSET	28.2	-396.7	2.2
			CHANNELS 3  Xrotation Yrotation Zrotation
			JOINT right_ankle
			{
				OFFSET	11.7	-411.3	35.4
				CHANNELS 3  Xrotation Yrotation Zrotation
				JOINT right_toes
				{
					OFFSET	0	-60	-88.6
					CHANNELS 3  Xrotation Yrotation Zrotation
					JOINT right_foot_ee
					{
						OFFSET	22.5	-16.5	-42.2
						CHANNELS 3  Xrotation Yrotation Zrotation
						End Site
						{
							OFFSET	1	0	0
						}
					}
				}
			}
		}
	}
}
MOTION
Frames: 13
Frame Time: 0.02
3389.94 739.962 -1325.91 29.0012 65.8977 -32.1779 -4.02446 0.572322 1.82415 -4.02272 0.455107 1.85686 -4.00452 -0.0788582 1.91017 -4.00954 0.223752 1.89866 -13.661 19.6844 10.3655 -14.1037 31.2834 16.0872 -0.0 0.0 -0.0 5.79896 16.1077 11.0925 -27.3856 -16.2453 62.5969 1.5784 -38.0188 0.543805 -34.2162 -2.35811 3.61509 -3.34448 26.2219 -8.29172 -0.0 0.0 -0.0 14.5696 26.671 -29.2555 4.45804 27.9189 -56.5617 0.610329 16.8222 -0.0902473 3.08646 -0.0984758 0.381879 2.21031 -14.7668 -20.2357 0.0 0.0 0.0 -32.2802 46.3256 16.4912 -5.8066 0.195151 0.869395 18.7779 -18.9222 -2.87092 -11.1004 0.0 0.0 -0.0 0.0 -0.0 2.57684 13.3176 7.18758 -17.1517 -0.318673 -2.60298 10.3695 2.729 1.49752 21.8267 -0.0 -0.0 0.0 0.0 0.0 
3387.22 742.286 -1324.05 27.8558 65.6104 -30.8163 -3.99985 0.656493 1.73956 -3.99833 0.544488 1.77779 -3.97816 0.0298816 1.85904 -3.98284 0.323058 1.83101 -15.2444 18.8739 11.3256 -15.6894 29.5759 17.1358 -0.0 0.0 -0.0 6.03348 17.6582 11.4029 -28.0927 -14.6224 63.7307 1.53191 -37.191 0.51544 -35.0136 -2.43714 3.68002 -3.77209 26.7622 -10.3736 -0.0 0.0 -0.0 14.6888 27.1045 -29.4779 7.61413 27.0669 -56.7396 0.561921 15.5552 -0.0767503 4.22617 -0.129614 0.524132 2.16662 -12.0453 -19.0612 0.0 0.0 0.0 -32.3272 47.6916 16.8072 -5.39213 0.184154 0.806738 17.6168 -19.9791 -2.73475 -10.9315 0.0 0.0 -0.0 0.0 -0.0 2.4899 15.2193 6.96667 -15.1714 -0.321892 -2.29919 9.06135 6.5669 1.33465 19.1395 -0.0 -0.0 0.0 0.0 0.0 
3387.35 745.579 -1324.55 29.79 66.0293 -32.5072 -4.10099 0.722857 1.72307 -4.09954 0.611766 1.76556 -4.07734 0.0947198 1.86611 -4.08199 0.388198 1.82775 -17.3186 17.9428 11.861 -17.8207 28.019 17.8665 -0.0 0.0 -0.0 6.05616 18.0643 11.419 -29.4506 -14.8946 63.2918 1.49246 -36.474 0.49179 -35.8682 -2.52285 3.7484 -3.60774 26.5184 -9.59708 -0.0 0.0 -0.0 14.3776 26.1517 -28.8707 10.2662 27.3895 -57.4155 0.609411 16.7984 -0.0899819 5.38603 -0.158389 0.669497 2.29318 -10.8595 -19.522 0.0 0.0 0.0 -32.2632 45.8761 16.1594 -3.70063 0.134579 0.551888 14.9813 -21.8297 -2.39741 -11.4561 0.0 0.0 -0.0 0.0 -0.0 6.86759 16.4203 5.08578 -11.4793 -0.299863 -1.73323 5.21673 2.25135 0.765549 16.8145 -0.0 -0.0 0.0 0.0 0.0 
3387.58 745.829 -1324.36 28.1972 66.7677 -30.3567 -3.94853 0.71641 1.60398 -3.94731 0.612907 1.6463 -3.92682 0.133702 1.75157 -3.93086 0.408611 1.70849 -18.1859 17.0315 11.3682 -18.7087 26.7347 17.2953 -0.0 0.0 -0.0 6.27712 17.9635 11.7717 -29.6976 -14.3935 63.3174 1.40623 -34.8592 0.441502 -35.5743 -2.49326 3.72503 -3.70436 26.8949 -9.91138 -0.0 0.0 -0.0 14.3741 26.3944 -28.8313 12.2906 27.0693 -57.5292 0.606524 16.7232 -0.0891493 6.45495 -0.182296 0.803949 2.32547 -8.41261 -18.8997 0.0 0.0 0.0 -32.7167 47.6067 16.8901 -1.85781 0.0720242 0.276001 14.6319 -22.8662 -2.36987 -11.0173 0.0 0.0 -0.0 0.0 -0.0 8.44518 17.1998 4.22366 -8.66706 -0.258647 -1.30372 2.20124 2.75844 0.326452 14.4539 -0.0 -0.0 0.0 0.0 0.0 
3384.97 745.198 -1324.65 31.3239 68.207 -33.1825 -4.20142 0.627925 1.44 -4.20043 0.535032 1.47703 -4.18423 0.0986034 1.56783 -4.1875 0.344947 1.5326 -18.0379 16.621 10.2775 -18.6064 26.4874 16.106 -0.0 0.0 -0.0 6.40929 17.616 12.0004 -29.8885 -14.0774 63.5582 1.2876 -32.5298 0.375679 -35.2786 -2.4636 3.70136 -3.64055 27.0734 -9.4453 -0.0 0.0 -0.0 14.3024 26.6331 -28.632 14.0416 27.0516 -57.361 0.608046 16.7629 -0.0895879 7.16021 -0.196694 0.892888 2.32754 -6.72842 -18.3128 0.0 0.0 0.0 -33.9941 48.3879 17.115 -1.10897 0.0440714 0.164477 14.5927 -22.7007 -2.35998 -10.8754 0.0 0.0 -0.0 0.0 -0.0 11.24 17.914 2.9594 -5.93919 -0.198573 -0.889454 0.0485062 3.54654 0.00725518 12.9166 -0.0 -0.0 0.0 0.0 0.0 
3383.11 748.136 -1326.25 32.2664 69.0552 -34.0069 -4.07007 0.647732 1.37707 -4.06919 0.558801 1.41549 -4.05319 0.142178 1.51512 -4.05619 0.379653 1.47367 -19.5534 15.7791 10.856 -20.0832 24.885 16.6679 -0.0 0.0 -0.0 6.46386 17.9214 12.0689 -30.5459 -13.7064 63.6237 1.27236 -32.2214 0.36752 -35.2323 -2.45898 3.69764 -3.79511 27.3498 -10.1393 -0.0 0.0 -0.0 14.2636 26.8329 -28.5145 15.6133 26.893 -57.1153 0.625338 17.2118 -0.0946401 7.75779 -0.208036 0.968381 2.38362 -5.49179 -18.2491 0.0 0.0 0.0 -33.7335 48.6609 16.497 0.16342 -0.0067638 -0.0241661 14.3081 -24.1395 -2.35222 -10.6764 0.0 0.0 -0.0 0.0 -0.0 12.36 18.3194 2.74602 -5.34139 -0.182776 -0.799074 -1.57818 3.33104 -0.236801 11.7235 -0.0 -0.0 0.0 0.0 0.0 
3380.6 749.288 -1328.67 31.7816 70.0108 -33.3503 -4.00637 0.634395 1.4009 -4.00544 0.543976 1.43842 -3.98955 0.123246 1.53288 -3.99265 0.363762 1.49419 -18.3407 15.8522 9.84871 -18.8756 25.2929 15.4706 -0.0 0.0 -0.0 6.40435 18.1523 11.9613 -31.1637 -13.0087 63.8552 1.21906 -31.126 0.339532 -35.0826 -2.44402 3.68559 -3.80059 27.408 -10.1339 -0.0 0.0 -0.0 14.2224 26.9827 -28.3982 16.6844 26.8536 -57.2642 0.660552 18.1191 -0.105326 8.61064 -0.222857 1.07631 2.46836 -3.51482 -18.0997 0.0 0.0 0.0 -31.6383 49.4219 14.9165 0.790951 -0.033377 -0.116785 14.1373 -25.6154 -2.36438 -10.6108 0.0 0.0 -0.0 0.0 -0.0 13.8954 18.5713 2.44283 -3.34599 -0.123231 -0.498644 -2.87281 3.20807 -0.432133 10.1809 -0.0 -0.0 0.0 0.0 0.0 
3374.04 744.287 -1323.26 30.1517 71.0055 -31.1782 -3.94816 0.52464 1.12435 -3.94757 0.452036 1.15545 -3.93702 0.11459 1.23541 -3.93902 0.308248 1.20182 -15.1942 16.0809 6.53009 -15.7588 26.9776 11.7252 -0.0 0.0 -0.0 6.83658 18.6751 12.6054 -31.4388 -11.7871 64.6485 1.05644 -27.6236 0.259724 -35.0709 -2.44286 3.68465 -3.7929 27.0682 -10.3014 -0.0 0.0 -0.0 13.4329 26.9783 -26.5591 18.0846 27.2871 -57.3119 0.758734 20.5989 -0.13788 10.3824 -0.248502 1.30117 2.99537 2.35563 -19.4984 0.0 0.0 0.0 -30.6117 49.7537 14.3754 -0.402472 0.0163629 0.059596 15.5285 -26.2134 -2.59711 -9.5845 0.0 0.0 -0.0 0.0 -0.0 14.4227 18.7662 2.89945 -0.740951 -0.0297995 -0.109802 -3.75714 8.08253 -0.578559 8.52624 -0.0 -0.0 0.0 0.0 0.0 
3363.96 743.168 -1321.19 29.4999 71.0834 -30.7991 -3.93387 0.660698 1.27473 -3.93315 0.578252 1.31418 -3.918 0.192458 1.4228 -3.92059 0.414725 1.37456 -15.8369 15.4582 5.43278 -16.472 26.5186 10.6578 -0.0 0.0 -0.0 6.09544 23.1245 11.1797 -30.1976 -12.6026 63.9507 1.04545 -27.3782 0.254648 -35.7358 -2.5095 3.73789 -3.29937 23.9032 -9.37926 -0.0 0.0 -0.0 13.2719 27.2689 -26.1491 18.4964 26.9818 -57.0026 0.818664 22.0745 -0.159687 9.93925 -0.24274 1.24486 2.83924 2.25434 -18.4304 0.0 0.0 0.0 -29.6489 50.0971 13.7275 -3.93442 0.141879 0.587026 15.5277 -27.4975 -2.63692 -9.39754 0.0 0.0 -0.0 0.0 -0.0 14.7883 18.6179 2.68981 -0.195534 -0.0080021 -0.0289396 -7.89316 4.15518 -1.20311 8.59735 -0.0 -0.0 0.0 0.0 0.0 
3361.07 739.237 -1320.12 29.7028 72.6336 -30.8568 -3.93384 0.588189 1.07806 -3.93335 0.518402 1.1133 -3.92191 0.190365 1.21322 -3.92376 0.379569 1.16794 -16.8808 15.572 2.09536 -17.8519 28.7337 7.97205 -0.0 0.0 -0.0 5.7831 23.4423 10.7158 -27.9933 -11.445 64.6434 0.928652 -24.7033 0.20336 -35.2117 -2.45692 3.69599 -2.91142 22.0261 -8.16875 -0.0 0.0 -0.0 12.9601 27.3033 -25.4255 19.2631 26.1893 -56.2876 0.91147 24.2996 -0.196235 10.8139 -0.253694 1.35605 2.79062 6.82742 -16.1478 0.0 0.0 0.0 -29.1283 50.6979 13.584 -4.14026 0.148188 0.617986 17.8508 -25.2464 -2.91765 -8.06868 0.0 0.0 -0.0 0.0 -0.0 16.611 18.8589 2.63966 7.45149 0.377726 1.07979 -17.4342 8.66988 -2.74338 3.32243 -0.0 -0.0 0.0 0.0 0.0 
3357.29 738.398 -1319.86 28.4579 74.0187 -29.3737 -3.81724 0.54938 0.940602 -3.81688 0.488417 0.973651 -3.80755 0.202291 1.07033 -3.80896 0.368782 1.02496 -15.946 15.085 0.472955 -16.8312 28.6409 6.00942 -0.0 0.0 -0.0 5.78842 23.8306 10.6996 -27.8627 -11.3153 64.2687 0.920705 -24.5169 0.200051 -36.2328 -2.55973 3.77718 -2.75446 21.1924 -7.69361 -0.0 0.0 -0.0 12.4393 27.3904 -24.2195 19.5492 26.3128 -56.2507 0.977393 25.8345 -0.224167 10.4063 -0.248801 1.30421 2.80729 8.41028 -15.5688 0.0 0.0 0.0 -27.5166 50.6183 12.7971 -3.79286 0.137476 0.565747 17.5075 -26.9026 -2.92171 -8.75514 0.0 0.0 -0.0 0.0 -0.0 18.0331 19.8023 2.28137 7.33002 0.370448 1.06259 -17.2445 7.58559 -2.69772 2.59525 -0.0 -0.0 0.0 0.0 0.0 
3354.38 736.699 -1319.53 26.2666 74.8209 -26.8638 -3.73406 0.607089 0.823581 -3.73386 0.553454 0.86054 -3.72473 0.297311 0.978995 -3.72579 0.448187 0.919762 -15.3242 15.2782 -0.217084 -16.1956 29.3698 5.273 -0.0 0.0 -0.0 5.93834 24.5115 10.8641 -27.8272 -10.9953 64.561 0.870596 -23.3287 0.179731 -36.2447 -2.56093 3.77812 -2.56155 20.0312 -7.1599 -0.0 0.0 -0.0 12.5181 27.3807 -24.4012 19.635 26.1622 -55.6168 1.03436 27.1296 -0.249571 10.343 -0.248007 1.29616 2.95878 10.6688 -15.6115 0.0 0.0 0.0 -26.5643 50.6519 12.2004 -4.55574 0.160582 0.680546 20.0488 -26.1915 -3.27223 -7.73218 0.0 0.0 -0.0 0.0 -0.0 18.555 18.6587 1.98498 7.78304 0.397779 1.12664 -19.5488 8.25046 -3.07203 0.817691 -0.0 -0.0 0.0 0.0 0.0 
3347.74 733.431 -1323.46 26.5838 75.8822 -27.274 -3.75632 0.60611 0.752396 -3.75618 0.557006 0.789437 -3.74781 0.319783 0.911699 -3.74868 0.459751 0.84976 -15.7369 15.6676 -0.617134 -16.7253 30.3667 5.19211 -0.0 0.0 -0.0 6.28511 25.0743 11.2999 -27.2604 -10.0218 63.2235 0.8404 -22.6023 0.167949 -35.9887 -2.53501 3.75793 -2.48415 19.3235 -7.06362 -0.0 0.0 -0.0 12.4437 27.3275 -24.2374 19.9413 25.4625 -55.3034 1.10255 28.6413 -0.281469 10.3867 -0.248556 1.30172 2.96603 12.0365 -15.0321 0.0 0.0 0.0 -25.8979 50.4971 11.4777 -4.55982 0.160701 0.681159 21.1498 -25.0112 -3.38549 -7.46123 0.0 0.0 -0.0 0.0 -0.0 18.8657 18.7281 2.11362 6.90288 0.345144 1.00202 -21.8639 9.32012 -3.45757 -0.382363 0.0 0.0 0.0 0.0 0.0 
